<?xml version="1.0" encoding="utf-8" standalone="no"?>
<!DOCTYPE svg PUBLIC "-//W3C//DTD SVG 1.1//EN"
  "http://www.w3.org/Graphics/SVG/1.1/DTD/svg11.dtd">
<svg height="360pt" version="1.1" viewBox="0 0 576 360" width="576pt" xmlns="http://www.w3.org/2000/svg" xmlns:xlink="http://www.w3.org/1999/xlink">
 <metadata>
  <rdf:RDF xmlns:cc="http://creativecommons.org/ns#" xmlns:dc="http://purl.org/dc/elements/1.1/" xmlns:rdf="http://www.w3.org/1999/02/22-rdf-syntax-ns#">
   <cc:Work>
    <dc:type rdf:resource="http://purl.org/dc/dcmitype/StillImage"/>
    <dc:date>2021-09-14T22:43:07.539199</dc:date>
    <dc:format>image/svg+xml</dc:format>
    <dc:creator>
     <cc:Agent>
      <dc:title>Matplotlib v3.4.2, https://matplotlib.org/</dc:title>
     </cc:Agent>
    </dc:creator>
   </cc:Work>
  </rdf:RDF>
 </metadata>
 <defs>
  <style type="text/css">*{stroke-linecap:butt;stroke-linejoin:round;}</style>
 </defs>
 <g id="figure_1">
  <g id="patch_1">
   <path d="M 0 360 
L 576 360 
L 576 0 
L 0 0 
z
" style="fill:none;"/>
  </g>
  <g id="patch_2">
   <path d="M 159.3 315 
L 431.1 315 
L 431.1 43.2 
L 159.3 43.2 
z
" style="fill:none;"/>
  </g>
  <g id="pane3d_1">
   <g id="patch_3">
    <path d="M 421.597031 239.522511 
L 298.872973 214.959639 
L 298.872973 95.374469 
L 423.514647 110.330023 
" style="fill:#f2f2f2;opacity:0.5;stroke:#f2f2f2;stroke-linejoin:miter;stroke-width:0.8;"/>
   </g>
  </g>
  <g id="pane3d_2">
   <g id="patch_4">
    <path d="M 176.148915 239.522511 
L 298.872973 214.959639 
L 298.872973 95.374469 
L 174.231298 110.330023 
" style="fill:#e6e6e6;opacity:0.5;stroke:#e6e6e6;stroke-linejoin:miter;stroke-width:0.8;"/>
   </g>
  </g>
  <g id="pane3d_3">
   <g id="patch_5">
    <path d="M 298.872973 268.488845 
L 421.597031 239.522511 
L 298.872973 214.959639 
L 176.148915 239.522511 
" style="fill:#ececec;opacity:0.5;stroke:#ececec;stroke-linejoin:miter;stroke-width:0.8;"/>
   </g>
  </g>
  <g id="axis3d_1">
   <g id="line2d_1">
    <path d="M 421.597031 239.522511 
L 298.872973 268.488845 
" style="fill:none;stroke:#262626;stroke-linecap:round;"/>
   </g>
   <g id="text_1">
    <!-- Factor 1 -->
    <g style="fill:#262626;" transform="translate(355.492685 294.346129)rotate(-13.280365)scale(0.18 -0.18)">
     <defs>
      <path d="M 525 0 
L 525 4581 
L 3616 4581 
L 3616 4041 
L 1131 4041 
L 1131 2622 
L 3281 2622 
L 3281 2081 
L 1131 2081 
L 1131 0 
L 525 0 
z
" id="ArialMT-46" transform="scale(0.015625)"/>
      <path d="M 2588 409 
Q 2275 144 1986 34 
Q 1697 -75 1366 -75 
Q 819 -75 525 192 
Q 231 459 231 875 
Q 231 1119 342 1320 
Q 453 1522 633 1644 
Q 813 1766 1038 1828 
Q 1203 1872 1538 1913 
Q 2219 1994 2541 2106 
Q 2544 2222 2544 2253 
Q 2544 2597 2384 2738 
Q 2169 2928 1744 2928 
Q 1347 2928 1158 2789 
Q 969 2650 878 2297 
L 328 2372 
Q 403 2725 575 2942 
Q 747 3159 1072 3276 
Q 1397 3394 1825 3394 
Q 2250 3394 2515 3294 
Q 2781 3194 2906 3042 
Q 3031 2891 3081 2659 
Q 3109 2516 3109 2141 
L 3109 1391 
Q 3109 606 3145 398 
Q 3181 191 3288 0 
L 2700 0 
Q 2613 175 2588 409 
z
M 2541 1666 
Q 2234 1541 1622 1453 
Q 1275 1403 1131 1340 
Q 988 1278 909 1158 
Q 831 1038 831 891 
Q 831 666 1001 516 
Q 1172 366 1500 366 
Q 1825 366 2078 508 
Q 2331 650 2450 897 
Q 2541 1088 2541 1459 
L 2541 1666 
z
" id="ArialMT-61" transform="scale(0.015625)"/>
      <path d="M 2588 1216 
L 3141 1144 
Q 3050 572 2676 248 
Q 2303 -75 1759 -75 
Q 1078 -75 664 370 
Q 250 816 250 1647 
Q 250 2184 428 2587 
Q 606 2991 970 3192 
Q 1334 3394 1763 3394 
Q 2303 3394 2647 3120 
Q 2991 2847 3088 2344 
L 2541 2259 
Q 2463 2594 2264 2762 
Q 2066 2931 1784 2931 
Q 1359 2931 1093 2626 
Q 828 2322 828 1663 
Q 828 994 1084 691 
Q 1341 388 1753 388 
Q 2084 388 2306 591 
Q 2528 794 2588 1216 
z
" id="ArialMT-63" transform="scale(0.015625)"/>
      <path d="M 1650 503 
L 1731 6 
Q 1494 -44 1306 -44 
Q 1000 -44 831 53 
Q 663 150 594 308 
Q 525 466 525 972 
L 525 2881 
L 113 2881 
L 113 3319 
L 525 3319 
L 525 4141 
L 1084 4478 
L 1084 3319 
L 1650 3319 
L 1650 2881 
L 1084 2881 
L 1084 941 
Q 1084 700 1114 631 
Q 1144 563 1211 522 
Q 1278 481 1403 481 
Q 1497 481 1650 503 
z
" id="ArialMT-74" transform="scale(0.015625)"/>
      <path d="M 213 1659 
Q 213 2581 725 3025 
Q 1153 3394 1769 3394 
Q 2453 3394 2887 2945 
Q 3322 2497 3322 1706 
Q 3322 1066 3130 698 
Q 2938 331 2570 128 
Q 2203 -75 1769 -75 
Q 1072 -75 642 372 
Q 213 819 213 1659 
z
M 791 1659 
Q 791 1022 1069 705 
Q 1347 388 1769 388 
Q 2188 388 2466 706 
Q 2744 1025 2744 1678 
Q 2744 2294 2464 2611 
Q 2184 2928 1769 2928 
Q 1347 2928 1069 2612 
Q 791 2297 791 1659 
z
" id="ArialMT-6f" transform="scale(0.015625)"/>
      <path d="M 416 0 
L 416 3319 
L 922 3319 
L 922 2816 
Q 1116 3169 1280 3281 
Q 1444 3394 1641 3394 
Q 1925 3394 2219 3213 
L 2025 2691 
Q 1819 2813 1613 2813 
Q 1428 2813 1281 2702 
Q 1134 2591 1072 2394 
Q 978 2094 978 1738 
L 978 0 
L 416 0 
z
" id="ArialMT-72" transform="scale(0.015625)"/>
      <path id="ArialMT-20" transform="scale(0.015625)"/>
      <path d="M 2384 0 
L 1822 0 
L 1822 3584 
Q 1619 3391 1289 3197 
Q 959 3003 697 2906 
L 697 3450 
Q 1169 3672 1522 3987 
Q 1875 4303 2022 4600 
L 2384 4600 
L 2384 0 
z
" id="ArialMT-31" transform="scale(0.015625)"/>
     </defs>
     <use xlink:href="#ArialMT-46"/>
     <use x="61.083984" xlink:href="#ArialMT-61"/>
     <use x="116.699219" xlink:href="#ArialMT-63"/>
     <use x="166.699219" xlink:href="#ArialMT-74"/>
     <use x="194.482422" xlink:href="#ArialMT-6f"/>
     <use x="250.097656" xlink:href="#ArialMT-72"/>
     <use x="283.398438" xlink:href="#ArialMT-20"/>
     <use x="311.181641" xlink:href="#ArialMT-31"/>
    </g>
   </g>
   <g id="Line3DCollection_1">
    <path d="M 304.171909 267.238147 
L 181.413531 238.468813 
L 179.584254 109.687731 
" style="fill:none;stroke:#cccccc;stroke-width:0.8;"/>
    <path d="M 343.660485 257.917731 
L 220.743475 230.597036 
L 219.556899 104.891477 
" style="fill:none;stroke:#cccccc;stroke-width:0.8;"/>
    <path d="M 381.105413 249.079673 
L 258.196914 223.100837 
L 257.59411 100.327454 
" style="fill:none;stroke:#cccccc;stroke-width:0.8;"/>
    <path d="M 416.661339 240.687473 
L 293.905014 215.953962 
L 293.833131 95.979192 
" style="fill:none;stroke:#cccccc;stroke-width:0.8;"/>
   </g>
   <g id="xtick_1">
    <g id="line2d_2">
     <path d="M 303.10289 266.987614 
L 306.314538 267.740288 
" style="fill:none;stroke:#262626;stroke-linecap:round;"/>
    </g>
    <g id="text_2">
     <!-- 0.2 -->
     <g style="fill:#262626;" transform="translate(300.12337 284.443717)scale(0.14 -0.14)">
      <defs>
       <path d="M 266 2259 
Q 266 3072 433 3567 
Q 600 4063 929 4331 
Q 1259 4600 1759 4600 
Q 2128 4600 2406 4451 
Q 2684 4303 2865 4023 
Q 3047 3744 3150 3342 
Q 3253 2941 3253 2259 
Q 3253 1453 3087 958 
Q 2922 463 2592 192 
Q 2263 -78 1759 -78 
Q 1097 -78 719 397 
Q 266 969 266 2259 
z
M 844 2259 
Q 844 1131 1108 757 
Q 1372 384 1759 384 
Q 2147 384 2411 759 
Q 2675 1134 2675 2259 
Q 2675 3391 2411 3762 
Q 2147 4134 1753 4134 
Q 1366 4134 1134 3806 
Q 844 3388 844 2259 
z
" id="ArialMT-30" transform="scale(0.015625)"/>
       <path d="M 581 0 
L 581 641 
L 1222 641 
L 1222 0 
L 581 0 
z
" id="ArialMT-2e" transform="scale(0.015625)"/>
       <path d="M 3222 541 
L 3222 0 
L 194 0 
Q 188 203 259 391 
Q 375 700 629 1000 
Q 884 1300 1366 1694 
Q 2113 2306 2375 2664 
Q 2638 3022 2638 3341 
Q 2638 3675 2398 3904 
Q 2159 4134 1775 4134 
Q 1369 4134 1125 3890 
Q 881 3647 878 3216 
L 300 3275 
Q 359 3922 746 4261 
Q 1134 4600 1788 4600 
Q 2447 4600 2831 4234 
Q 3216 3869 3216 3328 
Q 3216 3053 3103 2787 
Q 2991 2522 2730 2228 
Q 2469 1934 1863 1422 
Q 1356 997 1212 845 
Q 1069 694 975 541 
L 3222 541 
z
" id="ArialMT-32" transform="scale(0.015625)"/>
      </defs>
      <use xlink:href="#ArialMT-30"/>
      <use x="55.615234" xlink:href="#ArialMT-2e"/>
      <use x="83.398438" xlink:href="#ArialMT-32"/>
     </g>
    </g>
   </g>
   <g id="xtick_2">
    <g id="line2d_3">
     <path d="M 342.592395 257.680327 
L 345.801129 258.39353 
" style="fill:none;stroke:#262626;stroke-linecap:round;"/>
    </g>
    <g id="text_3">
     <!-- 0.4 -->
     <g style="fill:#262626;" transform="translate(339.579231 274.903869)scale(0.14 -0.14)">
      <defs>
       <path d="M 2069 0 
L 2069 1097 
L 81 1097 
L 81 1613 
L 2172 4581 
L 2631 4581 
L 2631 1613 
L 3250 1613 
L 3250 1097 
L 2631 1097 
L 2631 0 
L 2069 0 
z
M 2069 1613 
L 2069 3678 
L 634 1613 
L 2069 1613 
z
" id="ArialMT-34" transform="scale(0.015625)"/>
      </defs>
      <use xlink:href="#ArialMT-30"/>
      <use x="55.615234" xlink:href="#ArialMT-2e"/>
      <use x="83.398438" xlink:href="#ArialMT-34"/>
     </g>
    </g>
   </g>
   <g id="xtick_3">
    <g id="line2d_4">
     <path d="M 380.039589 248.854393 
L 383.241401 249.531151 
" style="fill:none;stroke:#262626;stroke-linecap:round;"/>
    </g>
    <g id="text_4">
     <!-- 0.6 -->
     <g style="fill:#262626;" transform="translate(376.98716 265.859181)scale(0.14 -0.14)">
      <defs>
       <path d="M 3184 3459 
L 2625 3416 
Q 2550 3747 2413 3897 
Q 2184 4138 1850 4138 
Q 1581 4138 1378 3988 
Q 1113 3794 959 3422 
Q 806 3050 800 2363 
Q 1003 2672 1297 2822 
Q 1591 2972 1913 2972 
Q 2475 2972 2870 2558 
Q 3266 2144 3266 1488 
Q 3266 1056 3080 686 
Q 2894 316 2569 119 
Q 2244 -78 1831 -78 
Q 1128 -78 684 439 
Q 241 956 241 2144 
Q 241 3472 731 4075 
Q 1159 4600 1884 4600 
Q 2425 4600 2770 4297 
Q 3116 3994 3184 3459 
z
M 888 1484 
Q 888 1194 1011 928 
Q 1134 663 1356 523 
Q 1578 384 1822 384 
Q 2178 384 2434 671 
Q 2691 959 2691 1453 
Q 2691 1928 2437 2201 
Q 2184 2475 1800 2475 
Q 1419 2475 1153 2201 
Q 888 1928 888 1484 
z
" id="ArialMT-36" transform="scale(0.015625)"/>
      </defs>
      <use xlink:href="#ArialMT-30"/>
      <use x="55.615234" xlink:href="#ArialMT-2e"/>
      <use x="83.398438" xlink:href="#ArialMT-36"/>
     </g>
    </g>
   </g>
   <g id="xtick_4">
    <g id="line2d_5">
     <path d="M 415.598913 240.473411 
L 418.790408 241.116448 
" style="fill:none;stroke:#262626;stroke-linecap:round;"/>
    </g>
    <g id="text_5">
     <!-- 0.8 -->
     <g style="fill:#262626;" transform="translate(412.50257 257.272076)scale(0.14 -0.14)">
      <defs>
       <path d="M 1131 2484 
Q 781 2613 612 2850 
Q 444 3088 444 3419 
Q 444 3919 803 4259 
Q 1163 4600 1759 4600 
Q 2359 4600 2725 4251 
Q 3091 3903 3091 3403 
Q 3091 3084 2923 2848 
Q 2756 2613 2416 2484 
Q 2838 2347 3058 2040 
Q 3278 1734 3278 1309 
Q 3278 722 2862 322 
Q 2447 -78 1769 -78 
Q 1091 -78 675 323 
Q 259 725 259 1325 
Q 259 1772 486 2073 
Q 713 2375 1131 2484 
z
M 1019 3438 
Q 1019 3113 1228 2906 
Q 1438 2700 1772 2700 
Q 2097 2700 2305 2904 
Q 2513 3109 2513 3406 
Q 2513 3716 2298 3927 
Q 2084 4138 1766 4138 
Q 1444 4138 1231 3931 
Q 1019 3725 1019 3438 
z
M 838 1322 
Q 838 1081 952 856 
Q 1066 631 1291 507 
Q 1516 384 1775 384 
Q 2178 384 2440 643 
Q 2703 903 2703 1303 
Q 2703 1709 2433 1975 
Q 2163 2241 1756 2241 
Q 1359 2241 1098 1978 
Q 838 1716 838 1322 
z
" id="ArialMT-38" transform="scale(0.015625)"/>
      </defs>
      <use xlink:href="#ArialMT-30"/>
      <use x="55.615234" xlink:href="#ArialMT-2e"/>
      <use x="83.398438" xlink:href="#ArialMT-38"/>
     </g>
    </g>
   </g>
  </g>
  <g id="axis3d_2">
   <g id="line2d_6">
    <path d="M 176.148915 239.522511 
L 298.872973 268.488845 
" style="fill:none;stroke:#262626;stroke-linecap:round;"/>
   </g>
   <g id="text_6">
    <!-- Factor 2 -->
    <g style="fill:#262626;" transform="translate(178.00092 279.180767)rotate(-346.719635)scale(0.18 -0.18)">
     <use xlink:href="#ArialMT-46"/>
     <use x="61.083984" xlink:href="#ArialMT-61"/>
     <use x="116.699219" xlink:href="#ArialMT-63"/>
     <use x="166.699219" xlink:href="#ArialMT-74"/>
     <use x="194.482422" xlink:href="#ArialMT-6f"/>
     <use x="250.097656" xlink:href="#ArialMT-72"/>
     <use x="283.398438" xlink:href="#ArialMT-20"/>
     <use x="311.181641" xlink:href="#ArialMT-32"/>
    </g>
   </g>
   <g id="Line3DCollection_2">
    <path d="M 415.554803 109.374934 
L 413.768353 237.955623 
L 290.994381 266.629275 
" style="fill:none;stroke:#cccccc;stroke-width:0.8;"/>
    <path d="M 378.803743 104.965234 
L 377.607509 230.718133 
L 254.691637 258.060806 
" style="fill:none;stroke:#cccccc;stroke-width:0.8;"/>
    <path d="M 343.694512 100.752534 
L 343.038483 223.799241 
L 220.122641 249.901549 
" style="fill:none;stroke:#cccccc;stroke-width:0.8;"/>
    <path d="M 310.119494 96.723921 
L 309.95843 217.178362 
L 187.166089 242.122874 
" style="fill:none;stroke:#cccccc;stroke-width:0.8;"/>
   </g>
   <g id="xtick_5">
    <g id="line2d_7">
     <path d="M 292.063385 266.379611 
L 288.85179 267.129674 
" style="fill:none;stroke:#262626;stroke-linecap:round;"/>
    </g>
    <g id="text_7">
     <!-- 0.2 -->
     <g style="fill:#262626;" transform="translate(275.584859 283.820463)scale(0.14 -0.14)">
      <use xlink:href="#ArialMT-30"/>
      <use x="55.615234" xlink:href="#ArialMT-2e"/>
      <use x="83.398438" xlink:href="#ArialMT-32"/>
     </g>
    </g>
   </g>
   <g id="xtick_6">
    <g id="line2d_8">
     <path d="M 255.759752 257.823203 
L 252.55094 258.537004 
" style="fill:none;stroke:#262626;stroke-linecap:round;"/>
    </g>
    <g id="text_8">
     <!-- 0.4 -->
     <g style="fill:#262626;" transform="translate(239.31234 275.0503)scale(0.14 -0.14)">
      <use xlink:href="#ArialMT-30"/>
      <use x="55.615234" xlink:href="#ArialMT-2e"/>
      <use x="83.398438" xlink:href="#ArialMT-34"/>
     </g>
    </g>
   </g>
   <g id="xtick_7">
    <g id="line2d_9">
     <path d="M 221.188733 249.675155 
L 217.986107 250.355262 
" style="fill:none;stroke:#262626;stroke-linecap:round;"/>
    </g>
    <g id="text_9">
     <!-- 0.6 -->
     <g style="fill:#262626;" transform="translate(204.777208 266.700212)scale(0.14 -0.14)">
      <use xlink:href="#ArialMT-30"/>
      <use x="55.615234" xlink:href="#ArialMT-2e"/>
      <use x="83.398438" xlink:href="#ArialMT-36"/>
     </g>
    </g>
   </g>
   <g id="xtick_8">
    <g id="line2d_10">
     <path d="M 188.229183 241.906913 
L 185.035664 242.555657 
" style="fill:none;stroke:#262626;stroke-linecap:round;"/>
    </g>
    <g id="text_10">
     <!-- 0.8 -->
     <g style="fill:#262626;" transform="translate(171.857556 258.740724)scale(0.14 -0.14)">
      <use xlink:href="#ArialMT-30"/>
      <use x="55.615234" xlink:href="#ArialMT-2e"/>
      <use x="83.398438" xlink:href="#ArialMT-38"/>
     </g>
    </g>
   </g>
  </g>
  <g id="axis3d_3">
   <g id="line2d_11">
    <path d="M 176.148915 239.522511 
L 174.231298 110.330023 
" style="fill:none;stroke:#262626;stroke-linecap:round;"/>
   </g>
   <g id="text_11">
    <!-- Factor 3 -->
    <g style="fill:#262626;" transform="translate(135.109053 142.490818)rotate(-270.850384)scale(0.18 -0.18)">
     <defs>
      <path d="M 269 1209 
L 831 1284 
Q 928 806 1161 595 
Q 1394 384 1728 384 
Q 2125 384 2398 659 
Q 2672 934 2672 1341 
Q 2672 1728 2419 1979 
Q 2166 2231 1775 2231 
Q 1616 2231 1378 2169 
L 1441 2663 
Q 1497 2656 1531 2656 
Q 1891 2656 2178 2843 
Q 2466 3031 2466 3422 
Q 2466 3731 2256 3934 
Q 2047 4138 1716 4138 
Q 1388 4138 1169 3931 
Q 950 3725 888 3313 
L 325 3413 
Q 428 3978 793 4289 
Q 1159 4600 1703 4600 
Q 2078 4600 2393 4439 
Q 2709 4278 2876 4000 
Q 3044 3722 3044 3409 
Q 3044 3113 2884 2869 
Q 2725 2625 2413 2481 
Q 2819 2388 3044 2092 
Q 3269 1797 3269 1353 
Q 3269 753 2831 336 
Q 2394 -81 1725 -81 
Q 1122 -81 723 278 
Q 325 638 269 1209 
z
" id="ArialMT-33" transform="scale(0.015625)"/>
     </defs>
     <use xlink:href="#ArialMT-46"/>
     <use x="61.083984" xlink:href="#ArialMT-61"/>
     <use x="116.699219" xlink:href="#ArialMT-63"/>
     <use x="166.699219" xlink:href="#ArialMT-74"/>
     <use x="194.482422" xlink:href="#ArialMT-6f"/>
     <use x="250.097656" xlink:href="#ArialMT-72"/>
     <use x="283.398438" xlink:href="#ArialMT-20"/>
     <use x="311.181641" xlink:href="#ArialMT-33"/>
    </g>
   </g>
   <g id="Line3DCollection_3">
    <path d="M 175.857604 219.896469 
L 298.872973 196.77478 
L 421.888342 219.896469 
" style="fill:none;stroke:#cccccc;stroke-width:0.8;"/>
    <path d="M 175.393075 188.600516 
L 298.872973 167.790526 
L 422.352871 188.600516 
" style="fill:none;stroke:#cccccc;stroke-width:0.8;"/>
    <path d="M 174.925024 157.067309 
L 298.872973 138.603398 
L 422.820921 157.067309 
" style="fill:none;stroke:#cccccc;stroke-width:0.8;"/>
    <path d="M 174.453412 125.294139 
L 298.872973 109.211258 
L 423.292534 125.294139 
" style="fill:none;stroke:#cccccc;stroke-width:0.8;"/>
   </g>
   <g id="xtick_9">
    <g id="line2d_12">
     <path d="M 176.922173 219.696375 
L 173.724245 220.29745 
" style="fill:none;stroke:#262626;stroke-linecap:round;"/>
    </g>
    <g id="text_12">
     <!-- 0.2 -->
     <g style="fill:#262626;" transform="translate(153.092863 229.917407)scale(0.14 -0.14)">
      <use xlink:href="#ArialMT-30"/>
      <use x="55.615234" xlink:href="#ArialMT-2e"/>
      <use x="83.398438" xlink:href="#ArialMT-32"/>
     </g>
    </g>
   </g>
   <g id="xtick_10">
    <g id="line2d_13">
     <path d="M 176.461969 188.420376 
L 173.251034 188.961513 
" style="fill:none;stroke:#262626;stroke-linecap:round;"/>
    </g>
    <g id="text_13">
     <!-- 0.4 -->
     <g style="fill:#262626;" transform="translate(152.579112 198.621454)scale(0.14 -0.14)">
      <use xlink:href="#ArialMT-30"/>
      <use x="55.615234" xlink:href="#ArialMT-2e"/>
      <use x="83.398438" xlink:href="#ArialMT-34"/>
     </g>
    </g>
   </g>
   <g id="xtick_11">
    <g id="line2d_14">
     <path d="M 175.998279 156.907432 
L 172.77423 157.387702 
" style="fill:none;stroke:#262626;stroke-linecap:round;"/>
    </g>
    <g id="text_14">
     <!-- 0.6 -->
     <g style="fill:#262626;" transform="translate(152.061467 167.088247)scale(0.14 -0.14)">
      <use xlink:href="#ArialMT-30"/>
      <use x="55.615234" xlink:href="#ArialMT-2e"/>
      <use x="83.398438" xlink:href="#ArialMT-36"/>
     </g>
    </g>
   </g>
   <g id="xtick_12">
    <g id="line2d_15">
     <path d="M 175.531062 125.154838 
L 172.293793 125.573298 
" style="fill:none;stroke:#262626;stroke-linecap:round;"/>
    </g>
    <g id="text_15">
     <!-- 0.8 -->
     <g style="fill:#262626;" transform="translate(151.539883 135.315076)scale(0.14 -0.14)">
      <use xlink:href="#ArialMT-30"/>
      <use x="55.615234" xlink:href="#ArialMT-2e"/>
      <use x="83.398438" xlink:href="#ArialMT-38"/>
     </g>
    </g>
   </g>
  </g>
  <g id="axes_1">
   <g id="patch_6">
    <path clip-path="url(#p67feb0e6c2)" d="M 16459.954054 24153.341054 
C 21521.442048 21231.089598 24828.275592 15746.86526 25652.162982 8908.504795 
C 26476.050371 2070.144329 24749.724849 -5564.030422 20853.389574 -12312.681081 
C 16957.0543 -19061.33174 11208.827789 -24373.460873 4874.690211 -27079.133697 
C -1459.447367 -29784.806521 -7862.341736 -29663.116834 -12923.82973 -26740.865378 
C -17985.317724 -23818.613922 -21292.151268 -18334.389584 -22116.038657 -11496.029119 
C -22939.926046 -4657.668653 -21213.600524 2976.506098 -17317.26525 9725.156757 
C -13420.929975 16473.807416 -7672.703465 21785.936548 -1338.565887 24491.609372 
C 4995.571691 27197.282196 11398.46606 27075.59251 16459.954054 24153.341054 
z
" style="fill:none;stroke:#c44e52;stroke-linejoin:miter;stroke-width:2;"/>
   </g>
   <g id="Path3DCollection_1">
    <defs>
     <path d="M -1.913417 -4.619398 
L -4.619398 -1.913417 
L -4.619398 1.913417 
L -1.913417 4.619398 
L 1.913417 4.619398 
L 4.619398 1.913417 
L 4.619398 -1.913417 
L 1.913417 -4.619398 
z
" id="mc2170e0b61" style="stroke:#4c72b0;stroke-width:0.8;"/>
    </defs>
    <g clip-path="url(#p67feb0e6c2)">
     <use style="fill:#4c72b0;stroke:#4c72b0;stroke-width:0.8;" x="348.127797" xlink:href="#mc2170e0b61" y="223.707057"/>
    </g>
   </g>
   <g id="Path3DCollection_2">
    <defs>
     <path d="M -1.666667 5 
L 1.666667 5 
L 1.666667 1.666667 
L 5 1.666667 
L 5 -1.666667 
L 1.666667 -1.666667 
L 1.666667 -5 
L -1.666667 -5 
L -1.666667 -1.666667 
L -5 -1.666667 
L -5 1.666667 
L -1.666667 1.666667 
z
" id="m9eb793eb81" style="stroke:#8172b3;stroke-width:0.8;"/>
    </defs>
    <g clip-path="url(#p67feb0e6c2)">
     <use style="fill:#8172b3;stroke:#8172b3;stroke-width:0.8;" x="221.457693" xlink:href="#m9eb793eb81" y="222.087637"/>
    </g>
   </g>
   <g id="Path3DCollection_3">
    <defs>
     <path d="M 0 -5 
L -4.330127 -2.5 
L -4.330127 2.5 
L -0 5 
L 4.330127 2.5 
L 4.330127 -2.5 
z
" id="m15d42c7c0f" style="stroke:#c44e52;stroke-width:0.8;"/>
    </defs>
    <g clip-path="url(#p67feb0e6c2)">
     <use style="fill:#c44e52;stroke:#c44e52;stroke-width:0.8;" x="383.024772" xlink:href="#m15d42c7c0f" y="190.836786"/>
    </g>
   </g>
   <g id="Path3DCollection_4">
    <defs>
     <path d="M -0 7.071068 
L 7.071068 0 
L 0 -7.071068 
L -7.071068 -0 
z
" id="md1285eae2e" style="stroke:#937860;stroke-width:0.8;"/>
    </defs>
    <g clip-path="url(#p67feb0e6c2)">
     <use style="fill:#937860;stroke:#937860;stroke-width:0.8;" x="406.793079" xlink:href="#md1285eae2e" y="176.57088"/>
    </g>
   </g>
   <g id="legend_1">
    <g id="patch_7">
     <path d="M 434.1 233.46 
L 560.449219 233.46 
Q 563.449219 233.46 563.449219 230.46 
L 563.449219 104.300625 
Q 563.449219 101.300625 560.449219 101.300625 
L 434.1 101.300625 
Q 431.1 101.300625 431.1 104.300625 
L 431.1 230.46 
Q 431.1 233.46 434.1 233.46 
z
" style="fill:#ffffff;opacity:0.8;stroke:#cccccc;stroke-linejoin:miter;stroke-width:0.8;"/>
    </g>
    <g id="Path3DCollection_5">
     <g>
      <use style="fill:#4c72b0;stroke:#4c72b0;stroke-width:0.8;" x="452.1" xlink:href="#mc2170e0b61" y="114.099844"/>
     </g>
    </g>
    <g id="text_16">
     <!-- Ageism -->
     <g style="fill:#262626;" transform="translate(479.1 118.037344)scale(0.15 -0.15)">
      <defs>
       <path d="M -9 0 
L 1750 4581 
L 2403 4581 
L 4278 0 
L 3588 0 
L 3053 1388 
L 1138 1388 
L 634 0 
L -9 0 
z
M 1313 1881 
L 2866 1881 
L 2388 3150 
Q 2169 3728 2063 4100 
Q 1975 3659 1816 3225 
L 1313 1881 
z
" id="ArialMT-41" transform="scale(0.015625)"/>
       <path d="M 319 -275 
L 866 -356 
Q 900 -609 1056 -725 
Q 1266 -881 1628 -881 
Q 2019 -881 2231 -725 
Q 2444 -569 2519 -288 
Q 2563 -116 2559 434 
Q 2191 0 1641 0 
Q 956 0 581 494 
Q 206 988 206 1678 
Q 206 2153 378 2554 
Q 550 2956 876 3175 
Q 1203 3394 1644 3394 
Q 2231 3394 2613 2919 
L 2613 3319 
L 3131 3319 
L 3131 450 
Q 3131 -325 2973 -648 
Q 2816 -972 2473 -1159 
Q 2131 -1347 1631 -1347 
Q 1038 -1347 672 -1080 
Q 306 -813 319 -275 
z
M 784 1719 
Q 784 1066 1043 766 
Q 1303 466 1694 466 
Q 2081 466 2343 764 
Q 2606 1063 2606 1700 
Q 2606 2309 2336 2618 
Q 2066 2928 1684 2928 
Q 1309 2928 1046 2623 
Q 784 2319 784 1719 
z
" id="ArialMT-67" transform="scale(0.015625)"/>
       <path d="M 2694 1069 
L 3275 997 
Q 3138 488 2766 206 
Q 2394 -75 1816 -75 
Q 1088 -75 661 373 
Q 234 822 234 1631 
Q 234 2469 665 2931 
Q 1097 3394 1784 3394 
Q 2450 3394 2872 2941 
Q 3294 2488 3294 1666 
Q 3294 1616 3291 1516 
L 816 1516 
Q 847 969 1125 678 
Q 1403 388 1819 388 
Q 2128 388 2347 550 
Q 2566 713 2694 1069 
z
M 847 1978 
L 2700 1978 
Q 2663 2397 2488 2606 
Q 2219 2931 1791 2931 
Q 1403 2931 1139 2672 
Q 875 2413 847 1978 
z
" id="ArialMT-65" transform="scale(0.015625)"/>
       <path d="M 425 3934 
L 425 4581 
L 988 4581 
L 988 3934 
L 425 3934 
z
M 425 0 
L 425 3319 
L 988 3319 
L 988 0 
L 425 0 
z
" id="ArialMT-69" transform="scale(0.015625)"/>
       <path d="M 197 991 
L 753 1078 
Q 800 744 1014 566 
Q 1228 388 1613 388 
Q 2000 388 2187 545 
Q 2375 703 2375 916 
Q 2375 1106 2209 1216 
Q 2094 1291 1634 1406 
Q 1016 1563 777 1677 
Q 538 1791 414 1992 
Q 291 2194 291 2438 
Q 291 2659 392 2848 
Q 494 3038 669 3163 
Q 800 3259 1026 3326 
Q 1253 3394 1513 3394 
Q 1903 3394 2198 3281 
Q 2494 3169 2634 2976 
Q 2775 2784 2828 2463 
L 2278 2388 
Q 2241 2644 2061 2787 
Q 1881 2931 1553 2931 
Q 1166 2931 1000 2803 
Q 834 2675 834 2503 
Q 834 2394 903 2306 
Q 972 2216 1119 2156 
Q 1203 2125 1616 2013 
Q 2213 1853 2448 1751 
Q 2684 1650 2818 1456 
Q 2953 1263 2953 975 
Q 2953 694 2789 445 
Q 2625 197 2315 61 
Q 2006 -75 1616 -75 
Q 969 -75 630 194 
Q 291 463 197 991 
z
" id="ArialMT-73" transform="scale(0.015625)"/>
       <path d="M 422 0 
L 422 3319 
L 925 3319 
L 925 2853 
Q 1081 3097 1340 3245 
Q 1600 3394 1931 3394 
Q 2300 3394 2536 3241 
Q 2772 3088 2869 2813 
Q 3263 3394 3894 3394 
Q 4388 3394 4653 3120 
Q 4919 2847 4919 2278 
L 4919 0 
L 4359 0 
L 4359 2091 
Q 4359 2428 4304 2576 
Q 4250 2725 4106 2815 
Q 3963 2906 3769 2906 
Q 3419 2906 3187 2673 
Q 2956 2441 2956 1928 
L 2956 0 
L 2394 0 
L 2394 2156 
Q 2394 2531 2256 2718 
Q 2119 2906 1806 2906 
Q 1569 2906 1367 2781 
Q 1166 2656 1075 2415 
Q 984 2175 984 1722 
L 984 0 
L 422 0 
z
" id="ArialMT-6d" transform="scale(0.015625)"/>
      </defs>
      <use xlink:href="#ArialMT-41"/>
      <use x="66.699219" xlink:href="#ArialMT-67"/>
      <use x="122.314453" xlink:href="#ArialMT-65"/>
      <use x="177.929688" xlink:href="#ArialMT-69"/>
      <use x="200.146484" xlink:href="#ArialMT-73"/>
      <use x="250.146484" xlink:href="#ArialMT-6d"/>
     </g>
    </g>
    <g id="Path3DCollection_6">
     <defs>
      <path d="M 0 -5 
L -5 5 
L 5 5 
z
" id="m48ee4b02b9" style="stroke:#dd8452;stroke-width:0.8;"/>
     </defs>
     <g>
      <use style="fill:#dd8452;stroke:#dd8452;stroke-width:0.8;" x="452.1" xlink:href="#m48ee4b02b9" y="135.493594"/>
     </g>
    </g>
    <g id="text_17">
     <!-- Asian-hate -->
     <g style="fill:#262626;" transform="translate(479.1 139.431094)scale(0.15 -0.15)">
      <defs>
       <path d="M 422 0 
L 422 3319 
L 928 3319 
L 928 2847 
Q 1294 3394 1984 3394 
Q 2284 3394 2536 3286 
Q 2788 3178 2913 3003 
Q 3038 2828 3088 2588 
Q 3119 2431 3119 2041 
L 3119 0 
L 2556 0 
L 2556 2019 
Q 2556 2363 2490 2533 
Q 2425 2703 2258 2804 
Q 2091 2906 1866 2906 
Q 1506 2906 1245 2678 
Q 984 2450 984 1813 
L 984 0 
L 422 0 
z
" id="ArialMT-6e" transform="scale(0.015625)"/>
       <path d="M 203 1375 
L 203 1941 
L 1931 1941 
L 1931 1375 
L 203 1375 
z
" id="ArialMT-2d" transform="scale(0.015625)"/>
       <path d="M 422 0 
L 422 4581 
L 984 4581 
L 984 2938 
Q 1378 3394 1978 3394 
Q 2347 3394 2619 3248 
Q 2891 3103 3008 2847 
Q 3125 2591 3125 2103 
L 3125 0 
L 2563 0 
L 2563 2103 
Q 2563 2525 2380 2717 
Q 2197 2909 1863 2909 
Q 1613 2909 1392 2779 
Q 1172 2650 1078 2428 
Q 984 2206 984 1816 
L 984 0 
L 422 0 
z
" id="ArialMT-68" transform="scale(0.015625)"/>
      </defs>
      <use xlink:href="#ArialMT-41"/>
      <use x="66.699219" xlink:href="#ArialMT-73"/>
      <use x="116.699219" xlink:href="#ArialMT-69"/>
      <use x="138.916016" xlink:href="#ArialMT-61"/>
      <use x="194.53125" xlink:href="#ArialMT-6e"/>
      <use x="250.146484" xlink:href="#ArialMT-2d"/>
      <use x="283.447266" xlink:href="#ArialMT-68"/>
      <use x="339.0625" xlink:href="#ArialMT-61"/>
      <use x="394.677734" xlink:href="#ArialMT-74"/>
      <use x="422.460938" xlink:href="#ArialMT-65"/>
     </g>
    </g>
    <g id="Path3DCollection_7">
     <defs>
      <path d="M -2.5 5 
L 0 2.5 
L 2.5 5 
L 5 2.5 
L 2.5 0 
L 5 -2.5 
L 2.5 -5 
L 0 -2.5 
L -2.5 -5 
L -5 -2.5 
L -2.5 0 
L -5 2.5 
z
" id="md09397fde8" style="stroke:#55a868;stroke-width:0.8;"/>
     </defs>
     <g>
      <use style="fill:#55a868;stroke:#55a868;stroke-width:0.8;" x="452.1" xlink:href="#md09397fde8" y="156.711562"/>
     </g>
    </g>
    <g id="text_18">
     <!-- Immigration -->
     <g style="fill:#262626;" transform="translate(479.1 160.649062)scale(0.15 -0.15)">
      <defs>
       <path d="M 597 0 
L 597 4581 
L 1203 4581 
L 1203 0 
L 597 0 
z
" id="ArialMT-49" transform="scale(0.015625)"/>
      </defs>
      <use xlink:href="#ArialMT-49"/>
      <use x="27.783203" xlink:href="#ArialMT-6d"/>
      <use x="111.083984" xlink:href="#ArialMT-6d"/>
      <use x="194.384766" xlink:href="#ArialMT-69"/>
      <use x="216.601562" xlink:href="#ArialMT-67"/>
      <use x="272.216797" xlink:href="#ArialMT-72"/>
      <use x="305.517578" xlink:href="#ArialMT-61"/>
      <use x="361.132812" xlink:href="#ArialMT-74"/>
      <use x="388.916016" xlink:href="#ArialMT-69"/>
      <use x="411.132812" xlink:href="#ArialMT-6f"/>
      <use x="466.748047" xlink:href="#ArialMT-6e"/>
     </g>
    </g>
    <g id="Path3DCollection_8">
     <g>
      <use style="fill:#c44e52;stroke:#c44e52;stroke-width:0.8;" x="452.1" xlink:href="#m15d42c7c0f" y="178.105312"/>
     </g>
    </g>
    <g id="text_19">
     <!-- Mask -->
     <g style="fill:#262626;" transform="translate(479.1 182.042812)scale(0.15 -0.15)">
      <defs>
       <path d="M 475 0 
L 475 4581 
L 1388 4581 
L 2472 1338 
Q 2622 884 2691 659 
Q 2769 909 2934 1394 
L 4031 4581 
L 4847 4581 
L 4847 0 
L 4263 0 
L 4263 3834 
L 2931 0 
L 2384 0 
L 1059 3900 
L 1059 0 
L 475 0 
z
" id="ArialMT-4d" transform="scale(0.015625)"/>
       <path d="M 425 0 
L 425 4581 
L 988 4581 
L 988 1969 
L 2319 3319 
L 3047 3319 
L 1778 2088 
L 3175 0 
L 2481 0 
L 1384 1697 
L 988 1316 
L 988 0 
L 425 0 
z
" id="ArialMT-6b" transform="scale(0.015625)"/>
      </defs>
      <use xlink:href="#ArialMT-4d"/>
      <use x="83.300781" xlink:href="#ArialMT-61"/>
      <use x="138.916016" xlink:href="#ArialMT-73"/>
      <use x="188.916016" xlink:href="#ArialMT-6b"/>
     </g>
    </g>
    <g id="Path3DCollection_9">
     <g>
      <use style="fill:#8172b3;stroke:#8172b3;stroke-width:0.8;" x="452.1" xlink:href="#m9eb793eb81" y="199.323281"/>
     </g>
    </g>
    <g id="text_20">
     <!-- Politics -->
     <g style="fill:#262626;" transform="translate(479.1 203.260781)scale(0.15 -0.15)">
      <defs>
       <path d="M 494 0 
L 494 4581 
L 2222 4581 
Q 2678 4581 2919 4538 
Q 3256 4481 3484 4323 
Q 3713 4166 3852 3881 
Q 3991 3597 3991 3256 
Q 3991 2672 3619 2267 
Q 3247 1863 2275 1863 
L 1100 1863 
L 1100 0 
L 494 0 
z
M 1100 2403 
L 2284 2403 
Q 2872 2403 3119 2622 
Q 3366 2841 3366 3238 
Q 3366 3525 3220 3729 
Q 3075 3934 2838 4000 
Q 2684 4041 2272 4041 
L 1100 4041 
L 1100 2403 
z
" id="ArialMT-50" transform="scale(0.015625)"/>
       <path d="M 409 0 
L 409 4581 
L 972 4581 
L 972 0 
L 409 0 
z
" id="ArialMT-6c" transform="scale(0.015625)"/>
      </defs>
      <use xlink:href="#ArialMT-50"/>
      <use x="66.699219" xlink:href="#ArialMT-6f"/>
      <use x="122.314453" xlink:href="#ArialMT-6c"/>
      <use x="144.53125" xlink:href="#ArialMT-69"/>
      <use x="166.748047" xlink:href="#ArialMT-74"/>
      <use x="194.53125" xlink:href="#ArialMT-69"/>
      <use x="216.748047" xlink:href="#ArialMT-63"/>
      <use x="266.748047" xlink:href="#ArialMT-73"/>
     </g>
    </g>
    <g id="Path3DCollection_10">
     <g>
      <use style="fill:#937860;stroke:#937860;stroke-width:0.8;" x="452.1" xlink:href="#md1285eae2e" y="220.54125"/>
     </g>
    </g>
    <g id="text_21">
     <!-- Vaccine -->
     <g style="fill:#262626;" transform="translate(479.1 224.47875)scale(0.15 -0.15)">
      <defs>
       <path d="M 1803 0 
L 28 4581 
L 684 4581 
L 1875 1253 
Q 2019 853 2116 503 
Q 2222 878 2363 1253 
L 3600 4581 
L 4219 4581 
L 2425 0 
L 1803 0 
z
" id="ArialMT-56" transform="scale(0.015625)"/>
      </defs>
      <use xlink:href="#ArialMT-56"/>
      <use x="59.324219" xlink:href="#ArialMT-61"/>
      <use x="114.939453" xlink:href="#ArialMT-63"/>
      <use x="164.939453" xlink:href="#ArialMT-63"/>
      <use x="214.939453" xlink:href="#ArialMT-69"/>
      <use x="237.15625" xlink:href="#ArialMT-6e"/>
      <use x="292.771484" xlink:href="#ArialMT-65"/>
     </g>
    </g>
   </g>
   <g id="Path3DCollection_11">
    <g clip-path="url(#p67feb0e6c2)">
     <use style="fill:#55a868;stroke:#55a868;stroke-width:0.8;" x="200.183045" xlink:href="#md09397fde8" y="190.47305"/>
    </g>
   </g>
   <g id="Path3DCollection_12">
    <g clip-path="url(#p67feb0e6c2)">
     <use style="fill:#dd8452;stroke:#dd8452;stroke-width:0.8;" x="312.517449" xlink:href="#m48ee4b02b9" y="125.191085"/>
    </g>
   </g>
  </g>
 </g>
 <defs>
  <clipPath id="p67feb0e6c2">
   <rect height="271.8" width="271.8" x="159.3" y="43.2"/>
  </clipPath>
 </defs>
</svg>
